<svg xmlns="http://www.w3.org/2000/svg" xml:space="preserve" width="1500" height="154" data-id="lg_1gTIbyH8D0F7vwMAdb" data-version="1" viewBox="0 0 1500 154"><g data-padding="20"><g transform="translate(10 2.562)scale(.96672)"><rect width="449.35" height="110.74" x="120.536" y="-377.95" fill="none" rx="0" ry="0" transform="translate(495.86 401.69)"/><path fill="#ffa92d" d="M628.851 41.3v7.84h30.67V41.3Zm0 27.44v7.84h29.69v-7.84Zm3.72-27.44h-8.33v68.6h8.33Zm36.26 46.06q0 6.76 3.09 12.1 3.08 5.34 8.38 8.38 5.29 3.04 11.85 3.04 6.67 0 11.91-3.04t8.33-8.38 3.09-12.1q0-6.86-3.09-12.16-3.09-5.29-8.33-8.33-5.24-3.03-11.91-3.03-6.56 0-11.85 3.03-5.3 3.04-8.38 8.33-3.09 5.3-3.09 12.16m7.94 0q0-4.71 2.01-8.38 2.01-3.68 5.49-5.74 3.47-2.05 7.88-2.05t7.89 2.05q3.48 2.06 5.49 5.74 2.01 3.67 2.01 8.38 0 4.7-2.01 8.33-2.01 3.62-5.49 5.73t-7.89 2.11-7.88-2.11q-3.48-2.11-5.49-5.73-2.01-3.63-2.01-8.33m53.02 0q0-4.71 2-8.38 2.01-3.68 5.49-5.74 3.48-2.05 7.89-2.05 3.63 0 6.81 1.12 3.19 1.13 5.54 2.99t3.33 4.12v-9.8q-2.35-2.75-6.71-4.27-4.36-1.51-8.97-1.51-6.56 0-11.86 3.03-5.29 3.04-8.38 8.33-3.08 5.3-3.08 12.16 0 6.76 3.08 12.1 3.09 5.34 8.38 8.38 5.3 3.04 11.86 3.04 4.61 0 8.97-1.52t6.71-4.27v-9.8q-.98 2.16-3.33 4.07t-5.54 3.04q-3.18 1.13-6.81 1.13-4.41 0-7.89-2.11t-5.49-5.73q-2-3.63-2-8.33m51.15 4.9V64.82h-7.84v28.42q0 8.03 4.22 12.83 4.21 4.81 11.27 4.81 4.5 0 7.84-2.01 3.33-2.01 5.58-6.03v7.06h7.84V64.82h-7.84v27.44q0 3.33-1.42 5.88-1.42 2.54-4.02 3.96-2.59 1.43-6.02 1.43-4.71 0-7.16-2.94t-2.45-8.33m45.47 3.82-6.17 3.82q1.27 2.65 3.77 5.19 2.5 2.55 6.13 4.17 3.62 1.62 8.13 1.62 6.96 0 11.22-3.92 4.27-3.92 4.27-9.8 0-4.02-1.92-6.57-1.91-2.55-5.14-4.36t-7.15-3.38q-2.36-.98-4.51-2.06-2.16-1.08-3.53-2.45t-1.37-3.14q0-2.25 1.76-3.33 1.77-1.08 4.22-1.08 3.52 0 6.32 1.67 2.79 1.67 4.65 4.21l6.27-4.01q-1.37-2.55-3.82-4.51t-5.63-3.14q-3.19-1.17-6.81-1.17-3.63 0-7.01 1.27t-5.49 3.92-2.11 6.66q0 3.92 2.01 6.52t5 4.21q2.99 1.62 5.93 2.8 2.65.98 5 2.1 2.35 1.13 3.87 2.75t1.52 3.97q0 2.64-1.91 4.16t-5.25 1.52q-2.74 0-5.04-1.03-2.31-1.03-4.07-2.79t-3.14-3.82m42.72-27.34v7.84h47.04v-7.84Zm49.79-27.44h-8.33v68.6h8.33Zm-46.06 0h-8.33v68.6h8.33Zm69.1 50.96V64.82h-7.84v28.42q0 8.03 4.21 12.83 4.21 4.81 11.27 4.81 4.51 0 7.84-2.01t5.59-6.03v7.06h7.84V64.82h-7.84v27.44q0 3.33-1.43 5.88-1.42 2.54-4.01 3.96-2.6 1.43-6.03 1.43-4.7 0-7.15-2.94t-2.45-8.33m50.96 17.64V33.46h-7.84v76.44Zm37.73-22.54q0-7.35-3.04-12.6-3.04-5.24-8.09-8.08-5.04-2.84-11.22-2.84-5.58 0-9.85 2.84-4.26 2.84-6.66 8.08-2.4 5.25-2.4 12.6 0 7.25 2.4 12.54t6.66 8.13q4.27 2.85 9.85 2.85 6.18 0 11.22-2.85 5.05-2.84 8.09-8.13t3.04-12.54m-7.94 0q0 5.19-2.11 8.82-2.11 3.62-5.58 5.48-3.48 1.87-7.7 1.87-3.43 0-6.76-1.87-3.33-1.86-5.49-5.48-2.15-3.63-2.15-8.82 0-5.2 2.15-8.82 2.16-3.63 5.49-5.49t6.76-1.86q4.22 0 7.7 1.86 3.47 1.86 5.58 5.49 2.11 3.62 2.11 8.82m-512.945 13.801a22.176 22.176 0 1 0 0-44.352c-12.247 0-22.176 9.929-22.176 22.176s9.93 22.176 22.176 22.176m0-38.343c8.91 0 16.167 7.257 16.167 16.167s-7.257 16.167-16.167 16.167S493.6 87.895 493.6 78.985s7.257-16.167 16.167-16.167m21.087 48.421a38.51 38.51 0 0 1-42.174 0 3 3 0 1 0-3.287 5.02 44.45 44.45 0 0 0 48.748 0 3 3 0 0 0-3.287-5.02M476.641 53.74a3 3 0 0 0-4.159.871 44.45 44.45 0 0 0 0 48.758 2.97 2.97 0 0 0 4.158.851 2.99 2.99 0 0 0 .862-4.158 38.41 38.41 0 0 1 0-42.164 3 3 0 0 0-.862-4.158m70.4.861a3.003 3.003 0 0 0-5.02 3.297 38.51 38.51 0 0 1 0 42.164 3.003 3.003 0 1 0 5.02 3.297 44.45 44.45 0 0 0 0-48.758m-12.89-12.88a44.45 44.45 0 0 0-48.758 0 3 3 0 0 0 3.287 5.02 38.41 38.41 0 0 1 42.174 0 2.97 2.97 0 0 0 4.158-.862 3.01 3.01 0 0 0-.86-4.158"/><path fill="#fff" stroke="#ffa92d" stroke-width="4.15" d="M586.181-.067v154.134"/></g><path fill="transparent" stroke="transparent" d="M449.5 0h601v154h-601z"/></g></svg>